<?xml version="1.0" encoding="utf-8"?>
<!-- Generator: Adobe Illustrator 23.0.2, SVG Export Plug-In . SVG Version: 6.00 Build 0)  -->
<svg version="1.1" id="Layer_1" xmlns="http://www.w3.org/2000/svg" xmlns:xlink="http://www.w3.org/1999/xlink" x="0px" y="0px"
	 viewBox="0 0 128 128" style="enable-background:new 0 0 128 128;" xml:space="preserve">
<style type="text/css">
	.st0{clip-path:url(#SVGID_2_);fill:url(#XMLID_2_);}
	.st1{clip-path:url(#SVGID_2_);fill:none;}
	.st2{clip-path:url(#SVGID_2_);fill:url(#XMLID_3_);}
	.st3{clip-path:url(#SVGID_2_);fill:url(#XMLID_4_);}
	.st4{clip-path:url(#SVGID_2_);fill:url(#XMLID_5_);}
	.st5{clip-path:url(#SVGID_2_);fill:url(#XMLID_6_);}
	.st6{clip-path:url(#SVGID_2_);fill:url(#XMLID_7_);}
	.st7{clip-path:url(#SVGID_2_);fill:#FFFFFF;}
	.st8{clip-path:url(#SVGID_2_);fill:url(#XMLID_8_);}
	.st9{clip-path:url(#SVGID_2_);fill:url(#XMLID_9_);}
	.st10{clip-path:url(#SVGID_2_);fill:url(#XMLID_10_);}
	.st11{clip-path:url(#SVGID_2_);fill:#F10015;}
	.st12{clip-path:url(#SVGID_2_);fill:url(#XMLID_11_);}
	.st13{clip-path:url(#SVGID_2_);fill:url(#XMLID_12_);}
	.st14{clip-path:url(#SVGID_2_);}
	.st15{fill:url(#XMLID_13_);}
	.st16{fill:#2D3540;}
	.st17{fill:url(#XMLID_14_);}
	.st18{fill:url(#XMLID_15_);}
	.st19{fill:none;stroke:#555D64;stroke-miterlimit:10;}
	.st20{fill:url(#XMLID_16_);}
	.st21{display:none;clip-path:url(#SVGID_2_);}
	.st22{display:inline;fill:url(#SVGID_3_);}
	.st23{display:inline;fill:url(#SVGID_4_);}
	.st24{display:inline;fill:url(#SVGID_5_);}
</style>
<g>
	<defs>
		<path id="SVGID_1_" d="M142.9,40.3c-2.1-2-34,4.4-35.2,0.8c-2.5-7.6-13.6-18-20.2-20.7C73.1,14.6,61-3.2,51,0.5
			c-6.3,2.4-11.5,5.4-15.8,9.1c-4-2.5-8.8-4-13.9-4C6.7,5.6-5.2,17.5-5.2,32.1c0,13.1,9.5,24,22.1,26.1c0,1.5-0.1,3-0.1,4.5
			c0,26.5,21.5,48,48,48c26,0,47.2-20.7,48-46.6c5.8,0.5,31.4,2.9,32.6,2.2C155.6,60.4,150.1,47.5,142.9,40.3z"/>
	</defs>
	<clipPath id="SVGID_2_">
		<use xlink:href="#SVGID_1_"  style="overflow:visible;"/>
	</clipPath>
	<linearGradient id="XMLID_2_" gradientUnits="userSpaceOnUse" x1="64.8337" y1="110.7393" x2="64.8337" y2="14.7262">
		<stop  offset="0" style="stop-color:#E8E7E7"/>
		<stop  offset="0.5" style="stop-color:#F3F3F3"/>
	</linearGradient>
	<circle id="XMLID_395_" class="st0" cx="64.8" cy="62.7" r="48"/>
	<path id="XMLID_394_" class="st1" d="M93.2,58.9c2.9-8.9-0.5-15.2-5.1-19.1c-3.2-4.7-9.7-18.1-24.6-17C50.9,23.7,46.3,35.6,43.8,44
		c-3.8,8.6-3.5,18.3-0.1,24.7c4.6,8.7,14.3,12.7,21.4,13C83.4,82.4,91.1,65.1,93.2,58.9z"/>
	<linearGradient id="XMLID_3_" gradientUnits="userSpaceOnUse" x1="51.4172" y1="42.1459" x2="28.8519" y2="85.02">
		<stop  offset="0" style="stop-color:#CD021B"/>
		<stop  offset="0.8855" style="stop-color:#F24B00"/>
	</linearGradient>
	<path id="XMLID_393_" class="st2" d="M38.9,48.4c-3.6,3.7-9.3,11.8-11.7,16.4c-2.5,4.5-4.5,9.5-3.1,12S38,76,42,74.6
		c7.6-2.7,9.8-5,6.6-18.7C45.5,42.3,38.9,48.4,38.9,48.4z"/>
	<linearGradient id="XMLID_4_" gradientUnits="userSpaceOnUse" x1="56.6168" y1="23.8748" x2="78.8594" y2="23.8748">
		<stop  offset="0" style="stop-color:#383638"/>
		<stop  offset="1" style="stop-color:#232122"/>
	</linearGradient>
	<path id="XMLID_392_" class="st3" d="M64.5,16.5c-4.7,0.9-8.2,0.6-7.9,15c5.7-2.3,10-3.7,14.3-4.2c4.8-0.5,4.9,0.2,7.9-0.5
		C75.5,16.9,68.9,15.7,64.5,16.5z"/>
	<linearGradient id="XMLID_5_" gradientUnits="userSpaceOnUse" x1="92.8076" y1="129.731" x2="60.3867" y2="101.066">
		<stop  offset="0" style="stop-color:#FF7800"/>
		<stop  offset="1" style="stop-color:#FF9300"/>
	</linearGradient>
	<path id="XMLID_391_" class="st4" d="M88,39.8c-3.2-4.7-9.7-18.1-24.6-17c-12.5,0.9-18.3,12-20.7,20.4c-3.8,8.6-2.3,19.1,1.1,25.4
		c0.3,0.5,0.6,1.1,0.9,1.6c0.2,0.4,0.4,0.7,0.5,1c3.2,5.2,3.5,8.5,2,11.2c-1.4,2.5-4.4,3.9-11.3,5.7C4.1,96.6-0.5,119.3,5.1,136
		c8.9,26.8,59.7,42.2,77.9-8.3c2.6-7.2,2.9-15.5,2.4-24.1c-0.4-6.6-0.9-8.4-1.1-16.8c-0.3-8.1,0.5-10.9,3.7-17.2
		c0.1-0.2,0.2-0.5,0.3-0.7c2.6-3.9,4.1-7.7,4.9-10C96.1,50,92.7,43.7,88,39.8z"/>
	<radialGradient id="XMLID_6_" cx="47.0078" cy="107.671" r="45.4268" gradientUnits="userSpaceOnUse">
		<stop  offset="0" style="stop-color:#FFB300"/>
		<stop  offset="1" style="stop-color:#FFC100;stop-opacity:0"/>
	</radialGradient>
	<path id="XMLID_390_" class="st5" d="M88,39.8c-3.2-4.7-9.7-18.1-24.6-17c-12.5,0.9-18.3,12-20.7,20.4c-3.8,8.6-2.3,19.1,1.1,25.4
		c0.3,0.5,0.6,1.1,0.9,1.6c0.2,0.4,0.4,0.7,0.5,1c3.2,5.2,3.5,8.5,2,11.2c-1.4,2.5-4.4,3.9-11.3,5.7C4.1,96.6-0.5,119.3,5.1,136
		c8.9,26.8,59.7,42.2,77.9-8.3c2.6-7.2,2.9-15.5,2.4-24.1c-0.4-6.6-0.9-8.4-1.1-16.8c-0.3-8.1,0.5-10.9,3.7-17.2
		c0.1-0.2,0.2-0.5,0.3-0.7c2.6-3.9,4.1-7.7,4.9-10C96.1,50,92.7,43.7,88,39.8z"/>
	
		<radialGradient id="XMLID_7_" cx="66.2168" cy="277.1606" r="23.7032" fx="49.9768" fy="275.7029" gradientTransform="matrix(1 0 0 1.1519 0 -267.5986)" gradientUnits="userSpaceOnUse">
		<stop  offset="0" style="stop-color:#FFB300"/>
		<stop  offset="1" style="stop-color:#FFC100;stop-opacity:0"/>
	</radialGradient>
	<path id="XMLID_389_" class="st6" d="M92.8,54.4C89.2,75.5,71.7,81,62.3,79.4c-14-2.5-21.8-9.5-21.8-25.6c0-13,11-30.3,25-30.3
		c9,0,17.2,7.7,21.7,16.2C91.6,44.2,93.8,48.8,92.8,54.4z"/>
	<path id="XMLID_388_" class="st7" d="M85.3,40.6c0.2-2-2.2-5.2-4.3-6.5c-2.1-1.3-5.3-1.8-6.5,1c-1.1,2.6,1.4,8.2,3.6,8.7
		C80,44.2,85.1,42.2,85.3,40.6z"/>
	<path id="XMLID_387_" class="st7" d="M59.7,49.9c2.4,1.4,9.8-0.5,10.3-3.8s-4.7-9.6-8.4-8.7C56.8,38.7,57.1,48.4,59.7,49.9z"/>
	<linearGradient id="XMLID_8_" gradientUnits="userSpaceOnUse" x1="75.9923" y1="39.7546" x2="81.6484" y2="39.7546">
		<stop  offset="0" style="stop-color:#363335"/>
		<stop  offset="1" style="stop-color:#1D1B1C"/>
	</linearGradient>
	<path id="XMLID_386_" class="st8" d="M81.6,41.1c0.4-1.2-1.5-4.8-4-4.3c-2.8,0.6-1.4,5.6,0.7,5.8C80,42.8,81.2,42.1,81.6,41.1z"/>
	
		<linearGradient id="XMLID_9_" gradientUnits="userSpaceOnUse" x1="200.6569" y1="173.247" x2="206.7389" y2="173.247" gradientTransform="matrix(0.9961 -8.870951e-02 8.870951e-02 0.9961 -155.1576 -108.8804)">
		<stop  offset="0" style="stop-color:#363335"/>
		<stop  offset="1" style="stop-color:#1D1B1C"/>
	</linearGradient>
	<path id="XMLID_385_" class="st9" d="M66.1,47.3c0.6-1.4-1.2-5.5-4.1-4.9c-3.2,0.6-2.2,6.4,0.2,6.6C64.2,49.1,65.7,48.3,66.1,47.3z
		"/>
	
		<ellipse id="XMLID_384_" transform="matrix(0.9169 -0.3991 0.3991 0.9169 -13.342 28.3993)" class="st7" cx="61.5" cy="46.2" rx="1.6" ry="1.7"/>
	
		<ellipse id="XMLID_383_" transform="matrix(0.8001 -0.5999 0.5999 0.8001 -8.6062 54.3908)" class="st7" cx="77.3" cy="40.1" rx="1.4" ry="1.6"/>
	<linearGradient id="XMLID_10_" gradientUnits="userSpaceOnUse" x1="61.4189" y1="63.5045" x2="107.2006" y2="63.1261">
		<stop  offset="0" style="stop-color:#FF1821"/>
		<stop  offset="0.8767" style="stop-color:#FF5100"/>
	</linearGradient>
	<path id="XMLID_382_" class="st10" d="M78.4,55.4c6.7,1.6,16.3,7.6,22.5,11.3c2.9,1.7,4.7,2.8,5.6,3.5c0.3,0.2,0.6,0.5,0.8,0.8
		c0.3,0.4-0.1,0.9-0.5,0.8c-3.3-1.2-7.4-2.3-12.7-2.8c-6.2-0.6-19.2-1-26-3.2c-5.2-1.7-10.6-6.1-12.4-10.8c2.1,1,6.1,1.8,9,1.6
		C69,56.1,78.4,55.4,78.4,55.4z"/>
	<path id="XMLID_381_" class="st11" d="M56.1,55.5c2.5,3,7.3,6.3,17.6,7.3c10.2,1,22.5,3.5,28.3,5.8c-5.5-3-9.7-5.9-14.7-8.2
		c-5.3-2.4-12.7-5.5-20.4-5.8C59.9,54.4,56.1,55.5,56.1,55.5z"/>
	<linearGradient id="XMLID_11_" gradientUnits="userSpaceOnUse" x1="60.8383" y1="58.6266" x2="80.6556" y2="58.6266">
		<stop  offset="0" style="stop-color:#FF2100"/>
		<stop  offset="1" style="stop-color:#FF7800"/>
	</linearGradient>
	<path id="XMLID_380_" class="st12" d="M60.8,55.7c1.4,5.8,15.5,4.4,19.8,5.8C75.6,56.9,67.3,57.8,60.8,55.7z"/>
	<linearGradient id="XMLID_12_" gradientUnits="userSpaceOnUse" x1="122.5781" y1="51.735" x2="48.9886" y2="51.066">
		<stop  offset="0" style="stop-color:#F10015"/>
		<stop  offset="0.8855" style="stop-color:#FF4A00"/>
	</linearGradient>
	<path id="XMLID_379_" class="st13" d="M75.3,45.8c-2.9,1-4.5,2.8-6.5,4.9c-1.9,1.9-5.2,3.8-7.6,4c-1.5,0.2-2.9,0-3.9-0.6
		c-2-1.2-1.1-2.9-2.7-3.8c-0.9-0.5-2.1-0.3-2.9,0.6c-0.8,0.9-0.9,1.9-0.7,2.8c0.3,1.1,1.2,1.7,2.4,1.4c1.2-0.2,1.7-0.2,3.7,0.7
		c1.2,0.5,2.8,1,4.7,1.3c4.3,0.6,12.7-0.3,22.4-2.9c9.1-2.5,23.7-1.6,34.1-1.6c1.8,0,0.9-0.3,8.5,0.9c0.5,0.1,0.8-0.6,0.3-0.9
		C123.8,50.8,83.6,43,75.3,45.8z"/>
	<path id="XMLID_378_" class="st11" d="M71.8,56.4c8-1.4,19.4-6.9,50.2-3.6c-18.2-0.8-30.1,0.2-40.3,2.9c-9.9,2.7-17.2,3.4-22.1,1.9
		c-1.3-0.4-2.4-1.5-3.1-2C60,57.4,66.1,57.4,71.8,56.4z"/>
	<g id="XMLID_336_" class="st14">
		<linearGradient id="XMLID_13_" gradientUnits="userSpaceOnUse" x1="53.4401" y1="12.4671" x2="53.4663" y2="15.0339">
			<stop  offset="1.175861e-03" style="stop-color:#FC8900"/>
			<stop  offset="1" style="stop-color:#F25200"/>
		</linearGradient>
		<path id="XMLID_377_" class="st15" d="M53.7,14.3c-1.1,0.2-2.2,1.2-2.8,0.2c-0.4-0.6,0.4-2,2.2-2.4c1.7-0.4,2.7,0.1,2.9,0.6
			C56.3,13.5,55.4,13.9,53.7,14.3z"/>
		<g id="XMLID_375_">
			<path id="XMLID_376_" class="st16" d="M58.4,32.7l-1.6-4.6c7.4-3.9,17.3-4.8,22.9-3.1c1.1,0.3,1.7,4.6,1.7,4.6
				C74.8,27.3,64.7,29.5,58.4,32.7z"/>
		</g>
		<linearGradient id="XMLID_14_" gradientUnits="userSpaceOnUse" x1="39.8288" y1="48.6837" x2="23.0801" y2="74.1462">
			<stop  offset="0" style="stop-color:#F18120"/>
			<stop  offset="1" style="stop-color:#FCBF01"/>
		</linearGradient>
		<path id="XMLID_374_" class="st17" d="M24.3,77.2c-1.3-1.8-2-3.1-1.4-5.2c1-3.5,3-6.7,5.2-10.3c2.7-4.4,7.1-10.4,9.4-13.3
			c3.3-4.1,7.2-5.1,2.9-0.4c-2.1,2.3-3.1,3.7-4.3,5.2c-1.6,2-2.9,4.1-4.3,6.2c-2.3,3.5-4.2,6.9-6,10.4
			C25.1,71.3,23.1,75.3,24.3,77.2z"/>
		<linearGradient id="XMLID_15_" gradientUnits="userSpaceOnUse" x1="24.7985" y1="43.194" x2="80.2011" y2="15.9222">
			<stop  offset="0" style="stop-color:#232122"/>
			<stop  offset="1" style="stop-color:#60606B"/>
		</linearGradient>
		<path id="XMLID_373_" class="st18" d="M64.5,19.6c10.1-1.8,12.4,5.1,13.3,9.2c2.2,0.1,3.6,0.9,4.3,1.2c-1.3-5.9-3.7-10.3-5.2-12.2
			c-3.6-4.7-12.9-6.7-22.7-3.9C47.1,16,30.3,27.3,33.6,38.8c1.4,4.9,2.5,7.4,4.2,12.2c4.7-5.7,13-13.5,15.4-15.1
			c3.9-2.6,5.8-3.4,6.1-3.4C57.8,27.9,58.3,20.7,64.5,19.6z"/>
		
			<ellipse id="XMLID_372_" transform="matrix(0.9346 -0.3558 0.3558 0.9346 -5.5099 25.0831)" class="st19" cx="65.4" cy="27.5" rx="0.7" ry="0.8"/>
		
			<ellipse id="XMLID_371_" transform="matrix(0.9346 -0.3558 0.3558 0.9346 -5.0837 26.1773)" class="st19" cx="68.6" cy="26.9" rx="0.7" ry="0.8"/>
		
			<ellipse id="XMLID_370_" transform="matrix(0.9346 -0.3558 0.3558 0.9346 -4.7442 27.2609)" class="st19" cx="71.7" cy="26.5" rx="0.7" ry="0.8"/>
		<linearGradient id="XMLID_16_" gradientUnits="userSpaceOnUse" x1="33.199" y1="34.043" x2="47.6055" y2="34.043">
			<stop  offset="0" style="stop-color:#FC8900"/>
			<stop  offset="1" style="stop-color:#F25200"/>
		</linearGradient>
		<path id="XMLID_369_" class="st20" d="M47.6,17c-7.6,4.6-16.5,13.1-14,21.8c1.4,4.9,2.5,7.4,4.2,12.2c2.1-2.5,4.9-5.5,7.6-8.2
			C39.7,30.7,43,21.6,47.6,17z"/>
		<path id="XMLID_337_" class="st19" d="M48.9,19.4c-1,0.3-0.9,1.8,0.4,1.3c0.4-0.1,0.9-0.5,0.8-0.9C50,19.3,49.4,19.3,48.9,19.4z"
			/>
	</g>
	<path id="XMLID_335_" class="st11" d="M61.2,32.3c-3.8,1-6.1,3.3-7.7,7.7c-0.2,0.4-0.7,0.4-0.9,0c-0.7-2.1-0.5-4.9,0.3-6.1
		c1.2-1.9,4.1-3,8-2.5C61.6,31.5,61.6,32.2,61.2,32.3z"/>
	<path id="XMLID_334_" class="st11" d="M82.5,31.8c-1.9-1.3-4.5-2.5-7.4-2.9c-0.5-0.1-0.6-0.7-0.1-0.9c1.9-0.8,4-0.9,5.5,0
		c1.2,0.7,1.9,1.8,2.5,3.1C83.3,31.7,82.9,32.1,82.5,31.8z"/>
	<g class="st21">
		
			<radialGradient id="SVGID_3_" cx="-19.1575" cy="-623.284" r="24.3387" fx="-22.836" fy="-599.2249" gradientTransform="matrix(0.8858 -1.173928e-02 -1.524540e-02 1.0554 45.3397 684.5725)" gradientUnits="userSpaceOnUse">
			<stop  offset="0" style="stop-color:#FF9879"/>
			<stop  offset="1" style="stop-color:#FF0000"/>
		</radialGradient>
		<path class="st22" d="M44,41.3c-0.3,0-0.6,0-0.8,0.2c-0.3,0.1-0.5,0.2-0.8,0.3c-1.1,0.2-2.2,0.6-3.3,0.9c-0.1,0-0.2,0.1-0.3,0.1
			c-0.5,0.4-0.9,0.2-1.4,0.1c-1.4-0.6-2.7-1.3-3.8-2.2c-0.9-0.7-1.6-1.4-2.3-2.2c-0.4-0.5-0.8-1.1-1.2-1.6c-0.2-0.3-0.5-0.7-0.6-1
			c-0.3-0.7-0.7-1.4-1-2.1c-0.7-1.7-1.1-3.4-1.3-5.2c0-0.4-0.3-0.5-0.6-0.6c-0.5-0.1-1-0.2-1.5-0.4c-0.7-0.3-1.4-0.6-1.9-1.1
			c-0.8-0.7-1.2-1.6-1.4-2.5c-0.1-0.3-0.2-0.3-0.6-0.3c-0.4,0.1-0.8,0.3-1.2,0.4c-0.4,0.1-0.8,0.2-1.3,0.2c-0.6,0-1.2,0.1-1.8,0
			c-0.9-0.1-1.7-0.3-2.3-0.8c-1.1-0.8-1.7-1.8-1.6-3c0-0.4,0.2-0.8,0.4-1.3c0.4-1.2,1.6-1.9,2.6-2.6c0.5-0.4,0.9-0.7,1.5-1
			c0.3-0.2,0.7-0.4,1.1-0.6c0.5-0.3,1-0.5,1.6-0.7c0.6-0.3,1.3-0.5,1.9-0.7c1.2-0.4,2.4-0.7,3.6-1c0.6-0.2,1.1-0.3,1.7-0.4
			c1.6-0.3,3.2-0.6,4.9-0.6c1.2,0,2.3-0.3,3.5-0.1c0.2,0,0.5,0,0.7,0c1,0,2,0,2.9,0.1c0.7,0,1.3,0.1,2,0.1c0.4,0,0.9,0.1,1.3,0.1
			c1,0.1,2,0.2,2.9,0.4c1.2,0.2,2.3,0.4,3.4,0.8c0.8,0.3,1.6,0.6,2.4,0.8c2,0.7,3.7,1.6,5.4,2.6c1.5,0.8,2.8,1.8,4.1,2.7
			c0.7,0.5,1.4,1.1,2.1,1.6c0.3,0.3,0.3,0.5,0,0.9c-0.2,0.3-0.3,0.6-0.4,0.9c-0.1,0.6-0.2,1.2-0.4,1.8c0,0.1-0.1,0.2,0,0.2
			c0,0,0,0.1,0,0.1c0,0-0.1,0-0.1,0c-0.2,0.5-0.2,1-0.5,1.5c0,0,0,0,0.1,0.1c0,0.1,0,0.1,0,0.2c-0.4,0.3-0.4,0.7-0.5,1
			c-0.4,0.9-0.9,1.9-1.4,2.8c-0.2,0.2-0.5,0.5-0.4,0.8c-0.1,0.1-0.1,0.1-0.2,0.2c-0.4,0.3-0.5,0.6-0.8,0.9c-0.2,0.2-0.5,0.5-0.5,0.8
			l0,0c-0.2,0-0.2,0.1-0.2,0.2c-0.1,0.1-0.1,0.1-0.2,0.2c-0.3,0.1-0.5,0.3-0.5,0.6c0,0-0.1,0.1-0.1,0.1c-0.2,0-0.3,0.2-0.4,0.3
			c-1.2,1.2-2.5,2.2-4,3.2c-1,0.7-2,1.3-3.1,1.8c-0.3,0.2-0.7,0.3-1,0.5c-0.5,0.2-1,0.5-1.5,0.7c-0.6,0.2-1.2,0.5-1.8,0.7
			c-0.2,0.1-0.4,0.2-0.6,0.3C44.2,41.2,44.1,41.2,44,41.3z"/>
		
			<radialGradient id="SVGID_4_" cx="-1.1292" cy="-613.8825" r="20.51" fx="-15.4116" fy="-628.6023" gradientTransform="matrix(0.8858 -1.173928e-02 -1.173928e-02 0.8127 47.525 533.2921)" gradientUnits="userSpaceOnUse">
			<stop  offset="0" style="stop-color:#FFFFFF"/>
			<stop  offset="1" style="stop-color:#D5D5D5"/>
		</radialGradient>
		<path class="st23" d="M61.3,24c0,0,0-0.1,0-0.1c0.3-0.1,0.3-0.3,0.3-0.5c0.1-0.6,0.2-1.2,0.4-1.8c0.1-0.4,0.5-0.7,0.5-1
			c0.1-0.5,0.4-0.8,0.8-1.1c0.8-0.6,1.7-1.1,2.7-1.2c0.8-0.1,1.6-0.3,2.4-0.1c1,0.2,1.8,0.5,2.5,1c1.6,1.1,1.9,2.6,1.5,4.3
			c-0.1,0.4-0.1,0.8-0.2,1.1c-0.2,1-0.5,1.9-0.8,2.9c-0.3,0.8-0.6,1.6-0.9,2.3c-0.5,1-1,2-1.6,3c-0.4,0.7-0.9,1.3-1.3,2
			c-0.5,0.7-1.1,1.5-1.7,2.2c-1.1,1.3-2.4,2.6-3.7,3.7c-0.7,0.5-1.3,1.1-2,1.6c-0.9,0.6-1.7,1.3-2.6,1.8c-0.8,0.4-1.5,0.9-2.2,1.3
			c-0.3,0.2-0.6,0.3-0.9,0.5c-1.2,0.6-2.5,1.3-3.8,1.8c-1,0.4-2.1,0.8-3.2,1.2c-0.9,0.3-1.8,0.6-2.7,0.9c-1.3,0.4-2.5,0.8-3.9,1
			c-0.8,0.1-1.6,0-2.3-0.1c-0.6-0.1-1.2-0.3-1.7-0.6c-0.9-0.6-1.7-1.3-1.9-2.3c-0.1-0.5-0.2-0.9-0.2-1.4c0.1-1.1,0.6-2.1,1.6-2.9
			c0.4-0.3,0.9-0.5,1.3-0.7c0.7-0.4,1.4-0.4,2.1-0.6c1.1-0.3,2.2-0.5,3.2-1c0.1,0,0.2,0,0.2-0.1c0.1,0,0.2-0.1,0.3-0.1
			c0.1,0.1,0.2,0,0.2,0c0.6-0.2,1.2-0.4,1.7-0.7c0.8-0.4,1.7-0.7,2.5-1.1c0.7-0.4,1.5-0.8,2.3-1.2c0.3-0.2,0.5-0.3,0.8-0.5
			c0.7-0.4,1.3-0.8,2-1.3c0.9-0.7,1.8-1.4,2.6-2.2c0.2-0.2,0.5-0.3,0.5-0.6c0,0,0.1-0.1,0.1-0.1c0.3-0.1,0.5-0.3,0.5-0.6
			c0.1-0.1,0.1-0.1,0.2-0.2c0.2,0,0.2-0.1,0.2-0.2c0,0,0,0,0,0c0.6-0.5,1-1,1.3-1.7c0.1-0.1,0.1-0.1,0.2-0.2
			c0.2-0.1,0.3-0.3,0.4-0.5c0.5-0.7,0.9-1.5,1.3-2.3c0.1-0.3,0.3-0.6,0.4-0.9c0.1-0.3,0.5-0.6,0.2-0.9c0-0.1,0-0.1,0-0.2
			c0.4-0.4,0.3-0.9,0.5-1.3C61.3,24.2,61.4,24.1,61.3,24z"/>
		
			<radialGradient id="SVGID_5_" cx="-51.3435" cy="-630.6775" r="11.4092" gradientTransform="matrix(0.8858 -1.173928e-02 -1.173928e-02 0.8127 47.525 533.2921)" gradientUnits="userSpaceOnUse">
			<stop  offset="0" style="stop-color:#F7FFF4"/>
			<stop  offset="1" style="stop-color:#E2E2E2"/>
		</radialGradient>
		<path class="st24" d="M11.4,29.9c-0.9,0.2-1.7,0.3-2.5,0.2c-0.9,0-1.8-0.1-2.7-0.3c-0.9-0.2-1.8-0.5-2.6-0.9
			c-0.9-0.4-1.7-1-2.4-1.6c-0.4-0.4-0.8-0.8-1.1-1.2c0,0-0.1-0.1-0.1-0.1c-0.6-1-1-2-1.1-3.1C-1.2,22-1.2,21-0.9,20
			c0.3-1,0.8-2,1.6-3c0.7-0.9,1.6-1.7,2.6-2.3c0.8-0.5,1.6-0.9,2.6-1.3c1.4-0.6,2.9-0.8,4.4-0.9c0.6,0,1.3,0,2,0.1
			c0.7,0.1,1.3,0.2,1.9,0.4c1,0.3,2,0.7,2.8,1.2c0.3,0.2,0.6,0.3,0.9,0.6c0.1,0.1,0.1,0.2,0,0.4c-0.5,0.4-1.1,0.7-1.5,1.1
			c-0.5,0.4-1,0.8-1.4,1.2c-0.4,0.4-0.6,0.9-0.8,1.4c-0.3,0.9-0.2,1.7,0.1,2.5c0.2,0.5,0.6,0.9,1.1,1.3c0.5,0.4,1,0.7,1.6,0.8
			c0.4,0.1,0.7,0.2,1.1,0.2c0.6,0,1.2,0.1,1.8,0c0.3,0,0.3,0,0.2,0.3c-0.5,1-1.2,2-2.1,2.8c-0.8,0.7-1.7,1.4-2.8,1.9
			C13.9,29.3,12.6,29.7,11.4,29.9z"/>
	</g>
</g>
</svg>
